<mxfile host="app.diagrams.net" modified="2024-07-02T06:15:33.952Z" agent="5.0 (Macintosh; Intel Mac OS X 10_15_7) AppleWebKit/537.36 (KHTML, like Gecko) Chrome/126.0.0.0 Safari/537.36" version="20.7.4" etag="DX6wNgZppdQ7WWOhUzuf" type="github">
  <diagram id="s8A8CJfk17_mF9EHk0O-" name="第 1 页">
    <mxGraphModel dx="2261" dy="1988" grid="1" gridSize="10" guides="1" tooltips="1" connect="1" arrows="1" fold="1" page="1" pageScale="1" pageWidth="827" pageHeight="1169" math="0" shadow="0">
      <root>
        <mxCell id="0" />
        <mxCell id="1" parent="0" />
        <mxCell id="FQoiDy3DAGQVeE-kWPIq-1" value="" style="rounded=0;whiteSpace=wrap;html=1;fillColor=#F0F0F0;" vertex="1" parent="1">
          <mxGeometry x="-670" y="-245" width="1120" height="830" as="geometry" />
        </mxCell>
        <mxCell id="FQoiDy3DAGQVeE-kWPIq-2" value="" style="rounded=0;whiteSpace=wrap;html=1;fillColor=#F0F0F0;fontColor=#333333;strokeColor=#666666;" vertex="1" parent="1">
          <mxGeometry x="-670" y="-245" width="1120" height="250" as="geometry" />
        </mxCell>
        <mxCell id="FQoiDy3DAGQVeE-kWPIq-3" value="应用层" style="rounded=0;whiteSpace=wrap;html=1;fillColor=#107A43;fontSize=19;fontStyle=1;fontColor=#FFFFFF;" vertex="1" parent="1">
          <mxGeometry x="-670" y="-245" width="130" height="250" as="geometry" />
        </mxCell>
        <mxCell id="FQoiDy3DAGQVeE-kWPIq-4" value="" style="rounded=0;whiteSpace=wrap;html=1;dashed=1;fillColor=none;" vertex="1" parent="1">
          <mxGeometry x="-120" y="-217.5" width="560" height="195" as="geometry" />
        </mxCell>
        <mxCell id="FQoiDy3DAGQVeE-kWPIq-5" value="" style="rounded=0;whiteSpace=wrap;html=1;dashed=1;fillColor=none;" vertex="1" parent="1">
          <mxGeometry x="-520" y="-217.5" width="370" height="195" as="geometry" />
        </mxCell>
        <mxCell id="FQoiDy3DAGQVeE-kWPIq-6" value="智能体构建" style="rounded=1;whiteSpace=wrap;html=1;labelBackgroundColor=none;fillColor=#A5CF7C;strokeColor=#336600;glass=0;opacity=40;fontStyle=1;strokeWidth=2;" vertex="1" parent="1">
          <mxGeometry x="-60" y="-185" width="100" height="50" as="geometry" />
        </mxCell>
        <mxCell id="FQoiDy3DAGQVeE-kWPIq-7" value="文档解析" style="rounded=1;whiteSpace=wrap;html=1;labelBackgroundColor=none;fillColor=#A5CF7C;strokeColor=#336600;glass=0;opacity=40;fontStyle=1;strokeWidth=2;" vertex="1" parent="1">
          <mxGeometry x="180" y="-105" width="100" height="50" as="geometry" />
        </mxCell>
        <mxCell id="FQoiDy3DAGQVeE-kWPIq-8" value="智能体列表" style="rounded=1;whiteSpace=wrap;html=1;labelBackgroundColor=none;fillColor=#A5CF7C;strokeColor=#336600;glass=0;opacity=40;fontStyle=1;strokeWidth=2;" vertex="1" parent="1">
          <mxGeometry x="-460" y="-200" width="120" height="60" as="geometry" />
        </mxCell>
        <mxCell id="FQoiDy3DAGQVeE-kWPIq-9" value="会话管理" style="rounded=1;whiteSpace=wrap;html=1;labelBackgroundColor=none;fillColor=#A5CF7C;strokeColor=#336600;glass=0;opacity=40;fontStyle=1;strokeWidth=2;" vertex="1" parent="1">
          <mxGeometry x="-310" y="-200" width="120" height="60" as="geometry" />
        </mxCell>
        <mxCell id="FQoiDy3DAGQVeE-kWPIq-10" value="生成式智能体" style="rounded=1;whiteSpace=wrap;html=1;labelBackgroundColor=none;fillColor=#A5CF7C;strokeColor=#336600;glass=0;opacity=40;fontStyle=1;strokeWidth=2;" vertex="1" parent="1">
          <mxGeometry x="-460" y="-105" width="120" height="60" as="geometry" />
        </mxCell>
        <mxCell id="FQoiDy3DAGQVeE-kWPIq-11" value="前台" style="text;html=1;strokeColor=none;fillColor=none;align=center;verticalAlign=middle;whiteSpace=wrap;rounded=0;dashed=1;fontSize=18;fontColor=#336600;fontStyle=1" vertex="1" parent="1">
          <mxGeometry x="-512" y="-140" width="30" height="50" as="geometry" />
        </mxCell>
        <mxCell id="FQoiDy3DAGQVeE-kWPIq-12" value="后台" style="text;html=1;strokeColor=none;fillColor=none;align=center;verticalAlign=middle;whiteSpace=wrap;rounded=0;dashed=1;fontSize=18;fontColor=#336600;fontStyle=1" vertex="1" parent="1">
          <mxGeometry x="-108" y="-140" width="30" height="35" as="geometry" />
        </mxCell>
        <mxCell id="FQoiDy3DAGQVeE-kWPIq-13" value="" style="group;fillColor=#F0F0F0;fontColor=#333333;strokeColor=#666666;" vertex="1" connectable="0" parent="1">
          <mxGeometry x="-670" y="515" width="1120" height="70" as="geometry" />
        </mxCell>
        <mxCell id="FQoiDy3DAGQVeE-kWPIq-14" value="" style="rounded=0;whiteSpace=wrap;html=1;fillColor=#F0F0F0;" vertex="1" parent="FQoiDy3DAGQVeE-kWPIq-13">
          <mxGeometry width="1120" height="70" as="geometry" />
        </mxCell>
        <mxCell id="FQoiDy3DAGQVeE-kWPIq-15" value="&lt;font color=&quot;#ffffff&quot;&gt;&lt;span style=&quot;font-size: 19px&quot;&gt;&lt;b&gt;物理层&lt;/b&gt;&lt;/span&gt;&lt;/font&gt;" style="rounded=0;whiteSpace=wrap;html=1;fillColor=#107A43;" vertex="1" parent="FQoiDy3DAGQVeE-kWPIq-13">
          <mxGeometry width="130" height="70" as="geometry" />
        </mxCell>
        <mxCell id="FQoiDy3DAGQVeE-kWPIq-16" value="&lt;font color=&quot;#1f2328&quot;&gt;&lt;span style=&quot;font-size: 16px&quot;&gt;Docker&lt;/span&gt;&lt;/font&gt;" style="rounded=1;whiteSpace=wrap;html=1;labelBackgroundColor=none;fillColor=#A5CF7C;strokeColor=#336600;glass=0;opacity=40;fontStyle=1;strokeWidth=2;" vertex="1" parent="FQoiDy3DAGQVeE-kWPIq-13">
          <mxGeometry x="160" y="20" width="130" height="30" as="geometry" />
        </mxCell>
        <mxCell id="FQoiDy3DAGQVeE-kWPIq-17" value="&lt;font color=&quot;#1f2328&quot;&gt;&lt;span style=&quot;font-size: 16px&quot;&gt;GPU/NPU&lt;/span&gt;&lt;/font&gt;" style="rounded=1;whiteSpace=wrap;html=1;labelBackgroundColor=none;fillColor=#A5CF7C;strokeColor=#336600;glass=0;opacity=40;fontStyle=1;strokeWidth=2;" vertex="1" parent="FQoiDy3DAGQVeE-kWPIq-13">
          <mxGeometry x="320" y="20" width="130" height="30" as="geometry" />
        </mxCell>
        <mxCell id="FQoiDy3DAGQVeE-kWPIq-18" value="&lt;font color=&quot;#1f2328&quot;&gt;&lt;span style=&quot;font-size: 16px&quot;&gt;NFS&lt;/span&gt;&lt;/font&gt;" style="rounded=1;whiteSpace=wrap;html=1;labelBackgroundColor=none;fillColor=#A5CF7C;strokeColor=#336600;glass=0;opacity=40;fontStyle=1;strokeWidth=2;" vertex="1" parent="FQoiDy3DAGQVeE-kWPIq-13">
          <mxGeometry x="480" y="20" width="130" height="30" as="geometry" />
        </mxCell>
        <mxCell id="FQoiDy3DAGQVeE-kWPIq-19" value="&lt;font color=&quot;#1f2328&quot;&gt;&lt;span style=&quot;font-size: 16px&quot;&gt;Ray&lt;/span&gt;&lt;/font&gt;" style="rounded=1;whiteSpace=wrap;html=1;labelBackgroundColor=none;fillColor=#A5CF7C;strokeColor=#336600;glass=0;opacity=40;fontStyle=1;strokeWidth=2;" vertex="1" parent="FQoiDy3DAGQVeE-kWPIq-13">
          <mxGeometry x="650" y="20" width="130" height="30" as="geometry" />
        </mxCell>
        <mxCell id="FQoiDy3DAGQVeE-kWPIq-20" value="&lt;font color=&quot;#1f2328&quot;&gt;&lt;span style=&quot;font-size: 16px&quot;&gt;...&lt;/span&gt;&lt;/font&gt;" style="rounded=1;whiteSpace=wrap;html=1;labelBackgroundColor=none;fillColor=#A5CF7C;strokeColor=#336600;glass=0;opacity=40;fontStyle=1;strokeWidth=2;" vertex="1" parent="FQoiDy3DAGQVeE-kWPIq-13">
          <mxGeometry x="820" y="20" width="130" height="30" as="geometry" />
        </mxCell>
        <mxCell id="FQoiDy3DAGQVeE-kWPIq-21" value="" style="group" vertex="1" connectable="0" parent="1">
          <mxGeometry x="-670" y="335" width="1120" height="70" as="geometry" />
        </mxCell>
        <mxCell id="FQoiDy3DAGQVeE-kWPIq-22" value="" style="rounded=0;whiteSpace=wrap;html=1;fillColor=#F0F0F0;" vertex="1" parent="FQoiDy3DAGQVeE-kWPIq-21">
          <mxGeometry width="1120" height="70" as="geometry" />
        </mxCell>
        <mxCell id="FQoiDy3DAGQVeE-kWPIq-23" value="&lt;font color=&quot;#ffffff&quot;&gt;&lt;span style=&quot;font-size: 19px&quot;&gt;&lt;b&gt;模型层&lt;/b&gt;&lt;/span&gt;&lt;/font&gt;" style="rounded=0;whiteSpace=wrap;html=1;fillColor=#107A43;" vertex="1" parent="FQoiDy3DAGQVeE-kWPIq-21">
          <mxGeometry width="130" height="70" as="geometry" />
        </mxCell>
        <mxCell id="FQoiDy3DAGQVeE-kWPIq-24" value="&lt;font color=&quot;#1f2328&quot;&gt;&lt;span style=&quot;font-size: 16px&quot;&gt;ChatGLM&lt;/span&gt;&lt;/font&gt;" style="rounded=1;whiteSpace=wrap;html=1;labelBackgroundColor=none;fillColor=#A5CF7C;strokeColor=#336600;glass=0;opacity=40;fontStyle=1;strokeWidth=2;" vertex="1" parent="FQoiDy3DAGQVeE-kWPIq-21">
          <mxGeometry x="160" y="20" width="130" height="30" as="geometry" />
        </mxCell>
        <mxCell id="FQoiDy3DAGQVeE-kWPIq-25" value="&lt;span style=&quot;box-sizing: border-box ; color: rgb(31 , 35 , 40) ; font-family: , &amp;#34;system-ui&amp;#34; , &amp;#34;segoe ui&amp;#34; , &amp;#34;noto sans&amp;#34; , &amp;#34;helvetica&amp;#34; , &amp;#34;arial&amp;#34; , sans-serif , &amp;#34;apple color emoji&amp;#34; , &amp;#34;segoe ui emoji&amp;#34; ; font-size: 16px&quot;&gt;Baichuan&lt;/span&gt;" style="rounded=1;whiteSpace=wrap;html=1;labelBackgroundColor=none;fillColor=#A5CF7C;strokeColor=#336600;glass=0;opacity=40;fontStyle=1;strokeWidth=2;" vertex="1" parent="FQoiDy3DAGQVeE-kWPIq-21">
          <mxGeometry x="320" y="20" width="130" height="30" as="geometry" />
        </mxCell>
        <mxCell id="FQoiDy3DAGQVeE-kWPIq-26" value="&lt;span style=&quot;box-sizing: border-box ; color: rgb(31 , 35 , 40) ; font-family: , &amp;#34;system-ui&amp;#34; , &amp;#34;segoe ui&amp;#34; , &amp;#34;noto sans&amp;#34; , &amp;#34;helvetica&amp;#34; , &amp;#34;arial&amp;#34; , sans-serif , &amp;#34;apple color emoji&amp;#34; , &amp;#34;segoe ui emoji&amp;#34; ; font-size: 16px&quot;&gt;Qwen&lt;/span&gt;" style="rounded=1;whiteSpace=wrap;html=1;labelBackgroundColor=none;fillColor=#A5CF7C;strokeColor=#336600;glass=0;opacity=40;fontStyle=1;strokeWidth=2;" vertex="1" parent="FQoiDy3DAGQVeE-kWPIq-21">
          <mxGeometry x="480" y="20" width="130" height="30" as="geometry" />
        </mxCell>
        <mxCell id="FQoiDy3DAGQVeE-kWPIq-27" value="&lt;span style=&quot;box-sizing: border-box ; color: rgb(31 , 35 , 40) ; font-family: , &amp;#34;system-ui&amp;#34; , &amp;#34;segoe ui&amp;#34; , &amp;#34;noto sans&amp;#34; , &amp;#34;helvetica&amp;#34; , &amp;#34;arial&amp;#34; , sans-serif , &amp;#34;apple color emoji&amp;#34; , &amp;#34;segoe ui emoji&amp;#34; ; font-size: 16px&quot;&gt;LLaMA&lt;/span&gt;" style="rounded=1;whiteSpace=wrap;html=1;labelBackgroundColor=none;fillColor=#A5CF7C;strokeColor=#336600;glass=0;opacity=40;fontStyle=1;strokeWidth=2;" vertex="1" parent="FQoiDy3DAGQVeE-kWPIq-21">
          <mxGeometry x="650" y="20" width="130" height="30" as="geometry" />
        </mxCell>
        <mxCell id="FQoiDy3DAGQVeE-kWPIq-28" value="&lt;span style=&quot;box-sizing: border-box ; color: rgb(31 , 35 , 40) ; font-family: , &amp;#34;system-ui&amp;#34; , &amp;#34;segoe ui&amp;#34; , &amp;#34;noto sans&amp;#34; , &amp;#34;helvetica&amp;#34; , &amp;#34;arial&amp;#34; , sans-serif , &amp;#34;apple color emoji&amp;#34; , &amp;#34;segoe ui emoji&amp;#34; ; font-size: 16px&quot;&gt;bge-rerank-large&lt;/span&gt;" style="rounded=1;whiteSpace=wrap;html=1;labelBackgroundColor=none;fillColor=#A5CF7C;strokeColor=#336600;glass=0;opacity=40;fontStyle=1;strokeWidth=2;" vertex="1" parent="FQoiDy3DAGQVeE-kWPIq-21">
          <mxGeometry x="815" y="20" width="130" height="30" as="geometry" />
        </mxCell>
        <mxCell id="FQoiDy3DAGQVeE-kWPIq-29" value="&lt;font color=&quot;#1f2328&quot;&gt;&lt;span style=&quot;font-size: 16px&quot;&gt;...&lt;/span&gt;&lt;/font&gt;" style="rounded=1;whiteSpace=wrap;html=1;labelBackgroundColor=none;fillColor=#A5CF7C;strokeColor=#336600;glass=0;opacity=40;fontStyle=1;strokeWidth=2;" vertex="1" parent="FQoiDy3DAGQVeE-kWPIq-21">
          <mxGeometry x="980" y="20" width="130" height="30" as="geometry" />
        </mxCell>
        <mxCell id="FQoiDy3DAGQVeE-kWPIq-30" value="" style="group" vertex="1" connectable="0" parent="1">
          <mxGeometry x="-670" y="25" width="1120" height="290" as="geometry" />
        </mxCell>
        <mxCell id="FQoiDy3DAGQVeE-kWPIq-31" value="" style="group;fontColor=#107A43;fillColor=none;" vertex="1" connectable="0" parent="FQoiDy3DAGQVeE-kWPIq-30">
          <mxGeometry width="1120" height="290" as="geometry" />
        </mxCell>
        <mxCell id="FQoiDy3DAGQVeE-kWPIq-32" value="" style="rounded=0;whiteSpace=wrap;html=1;fillColor=#F0F0F0;" vertex="1" parent="FQoiDy3DAGQVeE-kWPIq-31">
          <mxGeometry width="1120" height="290.00000000000006" as="geometry" />
        </mxCell>
        <mxCell id="FQoiDy3DAGQVeE-kWPIq-33" value="&lt;font color=&quot;#ffffff&quot;&gt;&lt;span style=&quot;font-size: 19px&quot;&gt;&lt;b&gt;能力层&lt;/b&gt;&lt;/span&gt;&lt;/font&gt;" style="rounded=0;whiteSpace=wrap;html=1;fillColor=#107A43;" vertex="1" parent="FQoiDy3DAGQVeE-kWPIq-31">
          <mxGeometry width="130" height="290.00000000000006" as="geometry" />
        </mxCell>
        <mxCell id="FQoiDy3DAGQVeE-kWPIq-34" value="" style="rounded=0;whiteSpace=wrap;html=1;dashed=1;fillColor=none;" vertex="1" parent="FQoiDy3DAGQVeE-kWPIq-31">
          <mxGeometry x="150" y="105" width="950" height="80" as="geometry" />
        </mxCell>
        <mxCell id="FQoiDy3DAGQVeE-kWPIq-35" value="" style="rounded=0;whiteSpace=wrap;html=1;dashed=1;fillColor=none;" vertex="1" parent="FQoiDy3DAGQVeE-kWPIq-31">
          <mxGeometry x="150" y="200" width="950" height="80" as="geometry" />
        </mxCell>
        <mxCell id="FQoiDy3DAGQVeE-kWPIq-36" value="重排算法" style="rounded=1;whiteSpace=wrap;html=1;labelBackgroundColor=none;fillColor=#A5CF7C;strokeColor=#336600;glass=0;opacity=40;fontStyle=1;strokeWidth=2;" vertex="1" parent="FQoiDy3DAGQVeE-kWPIq-31">
          <mxGeometry x="160" y="240" width="130" height="30" as="geometry" />
        </mxCell>
        <mxCell id="FQoiDy3DAGQVeE-kWPIq-37" value="搜索算法" style="rounded=1;whiteSpace=wrap;html=1;labelBackgroundColor=none;fillColor=#A5CF7C;strokeColor=#336600;glass=0;opacity=40;fontStyle=1;strokeWidth=2;" vertex="1" parent="FQoiDy3DAGQVeE-kWPIq-31">
          <mxGeometry x="310" y="240" width="130" height="30" as="geometry" />
        </mxCell>
        <mxCell id="FQoiDy3DAGQVeE-kWPIq-38" value="向量化" style="rounded=1;whiteSpace=wrap;html=1;labelBackgroundColor=none;fillColor=#A5CF7C;strokeColor=#336600;glass=0;opacity=40;fontStyle=1;strokeWidth=2;" vertex="1" parent="FQoiDy3DAGQVeE-kWPIq-31">
          <mxGeometry x="470" y="240" width="130" height="30" as="geometry" />
        </mxCell>
        <mxCell id="FQoiDy3DAGQVeE-kWPIq-39" value="LLM" style="rounded=1;whiteSpace=wrap;html=1;labelBackgroundColor=none;fillColor=#A5CF7C;strokeColor=#336600;glass=0;opacity=40;fontStyle=1;strokeWidth=2;" vertex="1" parent="FQoiDy3DAGQVeE-kWPIq-31">
          <mxGeometry x="630" y="240" width="130" height="30" as="geometry" />
        </mxCell>
        <mxCell id="FQoiDy3DAGQVeE-kWPIq-40" value="文档解析算法" style="rounded=1;whiteSpace=wrap;html=1;labelBackgroundColor=none;fillColor=#A5CF7C;strokeColor=#336600;glass=0;opacity=40;fontStyle=1;strokeWidth=2;" vertex="1" parent="FQoiDy3DAGQVeE-kWPIq-31">
          <mxGeometry x="790" y="240" width="130" height="30" as="geometry" />
        </mxCell>
        <mxCell id="FQoiDy3DAGQVeE-kWPIq-41" value="模型 / 算法" style="text;html=1;strokeColor=none;fillColor=none;align=center;verticalAlign=middle;whiteSpace=wrap;rounded=0;dashed=1;fontSize=18;fontColor=#336600;fontStyle=1" vertex="1" parent="FQoiDy3DAGQVeE-kWPIq-31">
          <mxGeometry x="567.5" y="203" width="95" height="30" as="geometry" />
        </mxCell>
        <mxCell id="FQoiDy3DAGQVeE-kWPIq-42" value="" style="rounded=0;whiteSpace=wrap;html=1;dashed=1;fillColor=none;" vertex="1" parent="FQoiDy3DAGQVeE-kWPIq-31">
          <mxGeometry x="150" y="10" width="950" height="80" as="geometry" />
        </mxCell>
        <mxCell id="FQoiDy3DAGQVeE-kWPIq-43" value="大模型服务" style="rounded=1;whiteSpace=wrap;html=1;labelBackgroundColor=none;fillColor=#A5CF7C;strokeColor=#336600;glass=0;opacity=40;fontStyle=1;strokeWidth=2;gradientColor=none;" vertex="1" parent="FQoiDy3DAGQVeE-kWPIq-31">
          <mxGeometry x="160" y="50" width="100" height="30" as="geometry" />
        </mxCell>
        <mxCell id="FQoiDy3DAGQVeE-kWPIq-44" value="日志服务" style="rounded=1;whiteSpace=wrap;html=1;labelBackgroundColor=none;fillColor=#A5CF7C;strokeColor=#336600;glass=0;opacity=40;fontStyle=1;strokeWidth=2;gradientColor=none;" vertex="1" parent="FQoiDy3DAGQVeE-kWPIq-31">
          <mxGeometry x="395" y="50" width="100" height="30" as="geometry" />
        </mxCell>
        <mxCell id="FQoiDy3DAGQVeE-kWPIq-45" value="用户中心服务" style="rounded=1;whiteSpace=wrap;html=1;labelBackgroundColor=none;fillColor=#A5CF7C;strokeColor=#336600;glass=0;opacity=40;fontStyle=1;strokeWidth=2;gradientColor=none;" vertex="1" parent="FQoiDy3DAGQVeE-kWPIq-31">
          <mxGeometry x="510" y="50" width="100" height="30" as="geometry" />
        </mxCell>
        <mxCell id="FQoiDy3DAGQVeE-kWPIq-46" value="插件服务" style="rounded=1;whiteSpace=wrap;html=1;labelBackgroundColor=none;fillColor=#A5CF7C;strokeColor=#336600;glass=0;opacity=40;fontStyle=1;strokeWidth=2;gradientColor=none;" vertex="1" parent="FQoiDy3DAGQVeE-kWPIq-31">
          <mxGeometry x="630" y="50" width="100" height="30" as="geometry" />
        </mxCell>
        <mxCell id="FQoiDy3DAGQVeE-kWPIq-47" value="服务层" style="text;html=1;strokeColor=none;fillColor=none;align=center;verticalAlign=middle;whiteSpace=wrap;rounded=0;dashed=1;fontSize=18;fontColor=#336600;fontStyle=1" vertex="1" parent="FQoiDy3DAGQVeE-kWPIq-31">
          <mxGeometry x="567.5" y="13" width="95" height="30" as="geometry" />
        </mxCell>
        <mxCell id="FQoiDy3DAGQVeE-kWPIq-48" value="接口层" style="text;html=1;strokeColor=none;fillColor=none;align=center;verticalAlign=middle;whiteSpace=wrap;rounded=0;dashed=1;fontSize=18;fontColor=#336600;fontStyle=1" vertex="1" parent="FQoiDy3DAGQVeE-kWPIq-31">
          <mxGeometry x="567.5" y="110" width="95" height="30" as="geometry" />
        </mxCell>
        <mxCell id="FQoiDy3DAGQVeE-kWPIq-49" value="对话接口" style="rounded=1;whiteSpace=wrap;html=1;labelBackgroundColor=none;fillColor=#A5CF7C;strokeColor=#336600;glass=0;opacity=40;fontStyle=1;strokeWidth=2;" vertex="1" parent="FQoiDy3DAGQVeE-kWPIq-31">
          <mxGeometry x="160" y="150" width="100" height="30" as="geometry" />
        </mxCell>
        <mxCell id="FQoiDy3DAGQVeE-kWPIq-50" value="生成接口" style="rounded=1;whiteSpace=wrap;html=1;labelBackgroundColor=none;fillColor=#A5CF7C;strokeColor=#336600;glass=0;opacity=40;fontStyle=1;strokeWidth=2;" vertex="1" parent="FQoiDy3DAGQVeE-kWPIq-31">
          <mxGeometry x="279" y="150" width="100" height="30" as="geometry" />
        </mxCell>
        <mxCell id="FQoiDy3DAGQVeE-kWPIq-51" value="重排接口" style="rounded=1;whiteSpace=wrap;html=1;labelBackgroundColor=none;fillColor=#A5CF7C;strokeColor=#336600;glass=0;opacity=40;fontStyle=1;strokeWidth=2;" vertex="1" parent="FQoiDy3DAGQVeE-kWPIq-31">
          <mxGeometry x="629" y="150" width="101" height="30" as="geometry" />
        </mxCell>
        <mxCell id="FQoiDy3DAGQVeE-kWPIq-52" value="向量化接口" style="rounded=1;whiteSpace=wrap;html=1;labelBackgroundColor=none;fillColor=#A5CF7C;strokeColor=#336600;glass=0;opacity=40;fontStyle=1;strokeWidth=2;" vertex="1" parent="FQoiDy3DAGQVeE-kWPIq-31">
          <mxGeometry x="395" y="150" width="95" height="30" as="geometry" />
        </mxCell>
        <mxCell id="FQoiDy3DAGQVeE-kWPIq-53" value="文档检索接口" style="rounded=1;whiteSpace=wrap;html=1;labelBackgroundColor=none;fillColor=#A5CF7C;strokeColor=#336600;glass=0;opacity=40;fontStyle=1;strokeWidth=2;" vertex="1" parent="FQoiDy3DAGQVeE-kWPIq-31">
          <mxGeometry x="509" y="150" width="101" height="30" as="geometry" />
        </mxCell>
        <mxCell id="FQoiDy3DAGQVeE-kWPIq-54" value="编排服务" style="rounded=1;whiteSpace=wrap;html=1;labelBackgroundColor=none;fillColor=#A5CF7C;strokeColor=#336600;glass=0;opacity=40;fontStyle=1;strokeWidth=2;gradientColor=none;" vertex="1" parent="FQoiDy3DAGQVeE-kWPIq-31">
          <mxGeometry x="279" y="50" width="100" height="30" as="geometry" />
        </mxCell>
        <mxCell id="FQoiDy3DAGQVeE-kWPIq-55" value="重排服务" style="rounded=1;whiteSpace=wrap;html=1;labelBackgroundColor=none;fillColor=#A5CF7C;strokeColor=#336600;glass=0;opacity=40;fontStyle=1;strokeWidth=2;gradientColor=none;" vertex="1" parent="FQoiDy3DAGQVeE-kWPIq-31">
          <mxGeometry x="752.5" y="50" width="97.5" height="30" as="geometry" />
        </mxCell>
        <mxCell id="FQoiDy3DAGQVeE-kWPIq-56" value="解析服务" style="rounded=1;whiteSpace=wrap;html=1;labelBackgroundColor=none;fillColor=#A5CF7C;strokeColor=#336600;glass=0;opacity=40;fontStyle=1;strokeWidth=2;gradientColor=none;" vertex="1" parent="FQoiDy3DAGQVeE-kWPIq-31">
          <mxGeometry x="870" y="50" width="97.5" height="30" as="geometry" />
        </mxCell>
        <mxCell id="FQoiDy3DAGQVeE-kWPIq-57" value="... ..." style="rounded=1;whiteSpace=wrap;html=1;labelBackgroundColor=none;fillColor=#A5CF7C;strokeColor=#336600;glass=0;opacity=40;fontStyle=1;strokeWidth=2;gradientColor=none;" vertex="1" parent="FQoiDy3DAGQVeE-kWPIq-31">
          <mxGeometry x="990" y="50" width="97.5" height="30" as="geometry" />
        </mxCell>
        <mxCell id="FQoiDy3DAGQVeE-kWPIq-58" value="解析接口" style="rounded=1;whiteSpace=wrap;html=1;labelBackgroundColor=none;fillColor=#A5CF7C;strokeColor=#336600;glass=0;opacity=40;fontStyle=1;strokeWidth=2;" vertex="1" parent="FQoiDy3DAGQVeE-kWPIq-31">
          <mxGeometry x="749" y="150" width="101" height="30" as="geometry" />
        </mxCell>
        <mxCell id="FQoiDy3DAGQVeE-kWPIq-59" value="OpenAPI" style="rounded=1;whiteSpace=wrap;html=1;labelBackgroundColor=none;fillColor=#A5CF7C;strokeColor=#336600;glass=0;opacity=40;fontStyle=1;strokeWidth=2;" vertex="1" parent="FQoiDy3DAGQVeE-kWPIq-31">
          <mxGeometry x="868.25" y="150" width="101" height="30" as="geometry" />
        </mxCell>
        <mxCell id="FQoiDy3DAGQVeE-kWPIq-60" value="... ..." style="rounded=1;whiteSpace=wrap;html=1;labelBackgroundColor=none;fillColor=#A5CF7C;strokeColor=#336600;glass=0;opacity=40;fontStyle=1;strokeWidth=2;" vertex="1" parent="FQoiDy3DAGQVeE-kWPIq-31">
          <mxGeometry x="990" y="150" width="101" height="30" as="geometry" />
        </mxCell>
        <mxCell id="FQoiDy3DAGQVeE-kWPIq-61" value="RAG" style="rounded=1;whiteSpace=wrap;html=1;labelBackgroundColor=none;fillColor=#A5CF7C;strokeColor=#336600;glass=0;opacity=40;fontStyle=1;strokeWidth=2;" vertex="1" parent="FQoiDy3DAGQVeE-kWPIq-31">
          <mxGeometry x="940" y="240" width="130" height="30" as="geometry" />
        </mxCell>
        <mxCell id="FQoiDy3DAGQVeE-kWPIq-62" value="" style="group" vertex="1" connectable="0" parent="1">
          <mxGeometry x="-670" y="425" width="1120" height="70" as="geometry" />
        </mxCell>
        <mxCell id="FQoiDy3DAGQVeE-kWPIq-63" value="" style="rounded=0;whiteSpace=wrap;html=1;fillColor=#F0F0F0;" vertex="1" parent="FQoiDy3DAGQVeE-kWPIq-62">
          <mxGeometry width="1120" height="70" as="geometry" />
        </mxCell>
        <mxCell id="FQoiDy3DAGQVeE-kWPIq-64" value="&lt;font color=&quot;#ffffff&quot;&gt;&lt;span style=&quot;font-size: 19px&quot;&gt;&lt;b&gt;数据层&lt;/b&gt;&lt;/span&gt;&lt;/font&gt;" style="rounded=0;whiteSpace=wrap;html=1;fillColor=#107A43;" vertex="1" parent="FQoiDy3DAGQVeE-kWPIq-62">
          <mxGeometry width="130" height="70" as="geometry" />
        </mxCell>
        <mxCell id="FQoiDy3DAGQVeE-kWPIq-65" value="&lt;font color=&quot;#1f2328&quot;&gt;&lt;span style=&quot;font-size: 16px&quot;&gt;QDrant&lt;/span&gt;&lt;/font&gt;" style="rounded=1;whiteSpace=wrap;html=1;labelBackgroundColor=none;fillColor=#A5CF7C;strokeColor=#336600;glass=0;opacity=40;fontStyle=1;strokeWidth=2;" vertex="1" parent="FQoiDy3DAGQVeE-kWPIq-62">
          <mxGeometry x="160" y="20" width="130" height="30" as="geometry" />
        </mxCell>
        <mxCell id="FQoiDy3DAGQVeE-kWPIq-66" value="&lt;font color=&quot;#1f2328&quot;&gt;&lt;span style=&quot;font-size: 16px&quot;&gt;OSS&lt;/span&gt;&lt;/font&gt;" style="rounded=1;whiteSpace=wrap;html=1;labelBackgroundColor=none;fillColor=#A5CF7C;strokeColor=#336600;glass=0;opacity=40;fontStyle=1;strokeWidth=2;" vertex="1" parent="FQoiDy3DAGQVeE-kWPIq-62">
          <mxGeometry x="320" y="20" width="130" height="30" as="geometry" />
        </mxCell>
        <mxCell id="FQoiDy3DAGQVeE-kWPIq-67" value="&lt;font color=&quot;#1f2328&quot;&gt;&lt;span style=&quot;font-size: 16px&quot;&gt;ElasticSearch&lt;/span&gt;&lt;/font&gt;" style="rounded=1;whiteSpace=wrap;html=1;labelBackgroundColor=none;fillColor=#A5CF7C;strokeColor=#336600;glass=0;opacity=40;fontStyle=1;strokeWidth=2;" vertex="1" parent="FQoiDy3DAGQVeE-kWPIq-62">
          <mxGeometry x="480" y="20" width="130" height="30" as="geometry" />
        </mxCell>
        <mxCell id="FQoiDy3DAGQVeE-kWPIq-68" value="&lt;font color=&quot;#1f2328&quot;&gt;&lt;span style=&quot;font-size: 16px&quot;&gt;MySQL&lt;/span&gt;&lt;/font&gt;" style="rounded=1;whiteSpace=wrap;html=1;labelBackgroundColor=none;fillColor=#A5CF7C;strokeColor=#336600;glass=0;opacity=40;fontStyle=1;strokeWidth=2;" vertex="1" parent="FQoiDy3DAGQVeE-kWPIq-62">
          <mxGeometry x="650" y="20" width="130" height="30" as="geometry" />
        </mxCell>
        <mxCell id="FQoiDy3DAGQVeE-kWPIq-69" value="&lt;font color=&quot;#1f2328&quot;&gt;&lt;span style=&quot;font-size: 16px&quot;&gt;Redis&lt;/span&gt;&lt;/font&gt;" style="rounded=1;whiteSpace=wrap;html=1;labelBackgroundColor=none;fillColor=#A5CF7C;strokeColor=#336600;glass=0;opacity=40;fontStyle=1;strokeWidth=2;" vertex="1" parent="FQoiDy3DAGQVeE-kWPIq-62">
          <mxGeometry x="820" y="20" width="130" height="30" as="geometry" />
        </mxCell>
        <mxCell id="FQoiDy3DAGQVeE-kWPIq-70" value="&lt;font color=&quot;#1f2328&quot;&gt;&lt;span style=&quot;font-size: 16px&quot;&gt;...&lt;/span&gt;&lt;/font&gt;" style="rounded=1;whiteSpace=wrap;html=1;labelBackgroundColor=none;fillColor=#A5CF7C;strokeColor=#336600;glass=0;opacity=40;fontStyle=1;strokeWidth=2;" vertex="1" parent="FQoiDy3DAGQVeE-kWPIq-62">
          <mxGeometry x="980" y="20" width="130" height="30" as="geometry" />
        </mxCell>
        <mxCell id="FQoiDy3DAGQVeE-kWPIq-71" value="对话型智能体" style="rounded=1;whiteSpace=wrap;html=1;labelBackgroundColor=none;fillColor=#A5CF7C;strokeColor=#336600;glass=0;opacity=40;fontStyle=1;strokeWidth=2;" vertex="1" parent="1">
          <mxGeometry x="-310" y="-105" width="120" height="60" as="geometry" />
        </mxCell>
        <mxCell id="FQoiDy3DAGQVeE-kWPIq-72" value="分类管理" style="rounded=1;whiteSpace=wrap;html=1;labelBackgroundColor=none;fillColor=#A5CF7C;strokeColor=#336600;glass=0;opacity=40;fontStyle=1;strokeWidth=2;" vertex="1" parent="1">
          <mxGeometry x="60" y="-185" width="100" height="50" as="geometry" />
        </mxCell>
        <mxCell id="FQoiDy3DAGQVeE-kWPIq-73" value="ICON管理" style="rounded=1;whiteSpace=wrap;html=1;labelBackgroundColor=none;fillColor=#A5CF7C;strokeColor=#336600;glass=0;opacity=40;fontStyle=1;strokeWidth=2;" vertex="1" parent="1">
          <mxGeometry x="180" y="-185" width="100" height="50" as="geometry" />
        </mxCell>
        <mxCell id="FQoiDy3DAGQVeE-kWPIq-74" value="标签管理" style="rounded=1;whiteSpace=wrap;html=1;labelBackgroundColor=none;fillColor=#A5CF7C;strokeColor=#336600;glass=0;opacity=40;fontStyle=1;strokeWidth=2;" vertex="1" parent="1">
          <mxGeometry x="300" y="-185" width="100" height="50" as="geometry" />
        </mxCell>
        <mxCell id="FQoiDy3DAGQVeE-kWPIq-75" value="插件管理" style="rounded=1;whiteSpace=wrap;html=1;labelBackgroundColor=none;fillColor=#A5CF7C;strokeColor=#336600;glass=0;opacity=40;fontStyle=1;strokeWidth=2;" vertex="1" parent="1">
          <mxGeometry x="-60" y="-105" width="100" height="50" as="geometry" />
        </mxCell>
        <mxCell id="FQoiDy3DAGQVeE-kWPIq-76" value="知识库管理" style="rounded=1;whiteSpace=wrap;html=1;labelBackgroundColor=none;fillColor=#A5CF7C;strokeColor=#336600;glass=0;opacity=40;fontStyle=1;strokeWidth=2;" vertex="1" parent="1">
          <mxGeometry x="60" y="-105" width="100" height="50" as="geometry" />
        </mxCell>
        <mxCell id="FQoiDy3DAGQVeE-kWPIq-77" value="权限管理" style="rounded=1;whiteSpace=wrap;html=1;labelBackgroundColor=none;fillColor=#A5CF7C;strokeColor=#336600;glass=0;opacity=40;fontStyle=1;strokeWidth=2;" vertex="1" parent="1">
          <mxGeometry x="300" y="-105" width="100" height="50" as="geometry" />
        </mxCell>
      </root>
    </mxGraphModel>
  </diagram>
</mxfile>
